<svg xmlns="http://www.w3.org/2000/svg" viewBox="0 0 165.39 165.61"><title>&#x8D44;&#x6E90; 87</title><path d="M165.39 83.1a1.61 1.61 0 0 1-.63 1.08q-8.31 8.25-16.61 16.51c-5.66 5.66-11.27 11.37-16.92 17q-8.74 8.76-17.51 17.5-8.32 8.33-16.66 16.66l-12.79 12.83c-1.27 1.26-1.79 1.24-3.06 0L52.54 136c-1.39-1.4-1.42-2 0-3.45 3.09-3.13 6.21-6.23 9.32-9.34l18.87-18.84L96.14 89q2.19-2.2 4.42-4.38c1.47-1.45 1.49-1.68 0-3.2-4.42-4.42-8.83-8.76-13.21-13.13Q69.91 50.88 52.48 33.43c-1.81-1.81-1.78-2.15 0-3.93q7.86-7.84 15.69-15.72L81.06.91c1.28-1.28 1.76-1.25 3.4.36 3.08 3 6.11 6.07 9.15 9.12q35.13 35.13 70.24 70.26c.64.64 1.53 1.16 1.54 2.45z" fill="#26d6d5"/><path d="M37.9 120.6a2.55 2.55 0 0 1-1.6-.69c-4.44-4.49-8.86-9-13.33-13.44-3.45-3.44-7-6.8-10.45-10.24-2-2-3.8-4-5.75-6S2.9 86.6 1.12 84.6c-1.47-1.6-1.53-2.22.06-3.82 3-3 6-5.91 8.93-8.88l21-21.09c1.57-1.58 3.13-3.15 4.72-4.71 1.43-1.39 2.35-1.39 3.79 0q17.49 17.48 35 35c1.47 1.47 1.48 2.17 0 3.6q-17.33 17.4-34.71 34.77a2.9 2.9 0 0 1-2.01 1.13z" fill="#fc7733"/></svg>